HIERARCHY
ROOT pelvis
{
  OFFSET 0 100 0
  CHANNELS 6 Xposition Yposition Zposition Zrotation Xrotation Yrotation
  JOINT pelvis_right_femur
  {
    OFFSET -10.78128 -3.44521 -0.5502486
    CHANNELS 3 Zrotation Xrotation Yrotation
    JOINT right_femur_tibia
    {
      OFFSET -0.8047443 -44.0398 -0.1307829
      CHANNELS 3 Zrotation Xrotation Yrotation
      JOINT right_tibia_foot
      {
        OFFSET 3.006224 -47.83518 -5
        CHANNELS 3 Zrotation Xrotation Yrotation
        End Site
        {
          OFFSET 0 -5 15
        }
      }
    }
  }
  JOINT pelvis_left_femur
  {
    OFFSET 10.78128 -3.44521 -0.5502486
    CHANNELS 3 Zrotation Xrotation Yrotation
    JOINT left_femur_tibia
    {
      OFFSET 0.8047443 -44.0398 -0.1307829
      CHANNELS 3 Zrotation Xrotation Yrotation
      JOINT left_tibia_foot
      {
        OFFSET -4.370144 -48.10324 -4.275266
        CHANNELS 3 Zrotation Xrotation Yrotation
        End Site
        {
          OFFSET 0 -5 15
        }
      }
    }
  }
  JOINT pelvis_spine1
  {
    OFFSET 0 6.468898 -3.129235
    CHANNELS 3 Zrotation Xrotation Yrotation
    JOINT spine1
    {
      OFFSET 0 23.15396 4.99043
      CHANNELS 3 Zrotation Xrotation Yrotation
      JOINT spine2
      {
        OFFSET 0 20.79997 -5.064912
        CHANNELS 3 Zrotation Xrotation Yrotation
        JOINT neck
        {
          OFFSET 0 14.38658 9.616178
          CHANNELS 3 Zrotation Xrotation Yrotation
          End Site
          {
            OFFSET 0 20 0
          }
        }
      }
      JOINT right_manubrium
      {
        OFFSET -5.722621 16.35077 3.967754
        CHANNELS 3 Zrotation Xrotation Yrotation
        JOINT right_clavicle
        {
          OFFSET -13.16364 1.694482 -4.693211
          CHANNELS 3 Zrotation Xrotation Yrotation
          JOINT right_humerus
          {
            OFFSET -28.5034 -0.3100689 -2.792744
            CHANNELS 3 Zrotation Xrotation Yrotation
            JOINT right_radius
            {
              OFFSET -25.15693 0.02248979 -1.271978
              CHANNELS 3 Zrotation Xrotation Yrotation
              End Site
              {
                OFFSET -15 0 0
              }
            }
          }
        }
      }
      JOINT left_manubrium
      {
        OFFSET 5.722621 16.35077 3.967754
        CHANNELS 3 Zrotation Xrotation Yrotation
        JOINT left_clavicle
        {
          OFFSET 13.16364 1.694482 -4.693211
          CHANNELS 3 Zrotation Xrotation Yrotation
          JOINT left_humerus
          {
            OFFSET 29.39168 -1.063119 -2.237045
            CHANNELS 3 Zrotation Xrotation Yrotation
            JOINT left_radius
            {
              OFFSET 24.59957 -0.9528479 0.9047498
              CHANNELS 3 Zrotation Xrotation Yrotation
              End Site
              {
                OFFSET 15 -0 -0
              }
            }
          }
        }
      }
    }
  }
}
MOTION
Frames: 21
Frame Time: 0.0416666666667
0 103.5113 0 1.965182 -3.455042 0.2688947 0.8130659 -9.255252 6.998912 -0 40.56747 -0 -6.416296 -16.98538 -3.822739 -7.120656 12.5947 -24.78216 -0 5.385724 -0 0.1542695 -19.00573 23.55489 -0.8219646 -2.300186 4.989469 -0.7855281 7.771952 -6.769209 1.798021 21.93314 8.427779 6.14806 -22.00404 8.86397 6.303232 -18.93587 10.17785 88.05746 36.68448 -22.89754 -0 0 17.89832 -6.292234 6.822063 2.371351 7.546269 -21.41767 -2.301383 -100.9034 42.05382 28.85366 0 0 -25.46274 -8.286512 17.89034 26.85254
0.1556668 103.4582 1.232636 1.692662 -2.884119 0.4204867 1.334487 -12.13306 7.597674 -0 41.55787 -0 -5.465311 -16.55159 -4.076205 -6.934423 13.13714 -25.23753 -0 5.813471 -0 -1.353395 -20.65817 23.08924 -0.7581782 -2.273602 4.985371 -0.8006846 7.797896 -6.800527 1.796113 21.87819 8.452381 6.167408 -21.96588 8.864986 6.279874 -18.90167 10.1487 88.26339 36.79617 -23.11184 -0 0 17.79948 -6.295944 6.955675 2.314705 7.621225 -21.5332 -2.298784 -100.732 41.98311 28.67262 0 0 -25.73413 -8.191267 17.8404 26.8258
0.2914925 103.2586 2.668627 0.8013444 -2.311425 0.4949096 2.738244 -17.25626 7.019922 -0 39.6788 -0 -6.231556 -13.94763 -3.776026 -6.232389 13.15472 -24.36451 -0 6.399227 -0 -1.256437 -21.928 22.4714 -0.8684906 -1.894194 4.712542 -0.2595508 7.658085 -6.938881 1.582186 22.01554 8.365635 5.786369 -22.29293 8.720226 6.0225 -18.61533 10.2856 88.21747 37.12298 -22.75754 -0 0 16.75596 -7.515661 8.083019 3.105123 7.075098 -21.27727 -2.363215 -99.59784 40.94036 27.74701 0 0 -25.27409 -7.875312 17.43738 26.35383
0.4164281 102.9356 4.300883 0.1565966 -1.303978 0.5705031 3.843453 -21.74571 6.991349 -0 37.2869 -0 -6.090175 -12.28101 -3.687301 -5.788082 13.12372 -23.67092 -0 6.401495 -0 -1.362596 -23.14557 21.84294 -0.9074525 -1.723161 4.472565 0.06754678 7.59903 -7.092732 1.490631 22.03345 8.293994 5.57599 -22.46466 8.64582 5.940774 -18.40369 10.35765 88.32409 37.12178 -22.83601 -0 0 16.17446 -7.914617 8.567415 3.443303 6.829982 -21.17322 -2.44938 -98.88979 40.45543 27.0505 0 0 -25.20586 -7.794989 17.2172 26.16102
0.5465021 102.455 6.272173 -0.4754546 0.05253181 0.6552563 5.004516 -26.57141 6.877928 -0 33.2165 -0 -5.903166 -10.37132 -3.518154 -5.406322 13.06903 -22.59375 -0 6.188824 -0 -0.9906082 -24.19773 21.1274 -0.9649529 -1.531412 4.15916 0.4755458 7.531355 -7.293514 1.386576 22.05036 8.194841 5.316612 -22.67265 8.552755 5.866158 -18.13482 10.45379 88.43782 37.04323 -22.95238 -0 0 15.48054 -8.342604 9.091647 3.851964 6.530855 -21.03386 -2.57054 -98.0309 39.87933 26.1744 0 0 -25.10852 -7.726614 16.95297 25.9244
0.6826063 101.8174 8.672568 -0.9669194 1.517329 0.7847301 5.942408 -30.78352 6.67539 -0 28.49394 -0 -5.602695 -8.551266 -3.318662 -5.151454 13.19926 -21.46358 -0 6.003784 -0 -0.8823093 -25.109 20.17111 -1.014214 -1.371276 3.831761 0.8653603 7.473608 -7.508992 1.30102 22.0459 8.093399 5.077922 -22.86451 8.468518 5.825007 -17.86277 10.54298 88.58401 36.88767 -23.16041 -0 0 14.83519 -8.620253 9.502522 4.190861 6.273642 -20.91446 -2.7047 -97.21585 39.3799 25.29451 0 0 -25.0804 -7.698575 16.70933 25.72202
0.8236119 101.0472 11.61968 -1.338207 2.968369 0.9894262 6.629116 -34.21381 6.216377 -0 23.40278 -0 -5.336978 -6.707421 -3.013903 -5.004117 13.63241 -20.24322 -0 6.219755 -0 -1.119983 -25.71508 18.86684 -1.066697 -1.210268 3.48859 1.268369 7.420795 -7.736581 1.215012 22.03564 7.987172 4.833394 -23.05449 8.378958 5.792227 -17.57276 10.63824 88.73513 36.7045 -23.38831 -0 0 14.1618 -8.902031 9.912079 4.54484 6.01298 -20.7962 -2.850241 -96.36003 38.8408 24.3545 0 0 -25.05909 -7.657024 16.44924 25.48613
0.9643116 100.2061 15.19788 -1.615936 4.188305 1.294624 7.032693 -36.43843 5.480679 -0 18.83442 -0 -5.193148 -4.982544 -2.603271 -4.923881 14.3862 -19.03204 -0 7.268938 -0 -1.963352 -25.8024 17.14756 -1.120665 -1.054862 3.160654 1.65575 7.378359 -7.955503 1.131616 22.02346 7.885076 4.598709 -23.22677 8.287936 5.765172 -17.28616 10.73478 88.8708 36.52176 -23.59812 -0 0 13.50033 -9.20594 10.31282 4.906041 5.761646 -20.6866 -2.994315 -95.51566 38.27479 23.41987 0 0 -25.03192 -7.588236 16.18414 25.21528
1.100621 99.39956 19.45673 -1.871216 5.003716 1.71074 7.272639 -37.23558 4.58036 -0 15.51492 -0 -5.273044 -3.511954 -2.119837 -4.836854 15.32725 -17.85464 -0 9.646772 -0 -3.405222 -25.07006 15.0695 -1.178234 -0.9048923 2.875287 2.009062 7.351573 -8.147103 1.049778 22.0162 7.792826 4.380893 -23.36885 8.194811 5.737077 -17.0192 10.83235 88.96393 36.37091 -23.73811 -0 0 12.87324 -9.584779 10.72172 5.289541 5.520102 -20.58674 -3.125687 -94.7092 37.66813 22.53561 0 0 -24.9686 -7.471284 15.91605 24.89422
1.233037 98.76621 24.37707 -2.175476 5.279553 2.211864 7.547949 -36.51529 3.774308 -0 13.9686 -0 -5.644515 -2.490402 -1.673517 -4.654771 16.11801 -16.73323 -0 13.76471 -0 -5.260522 -23.27806 12.85297 -1.240195 -0.7673553 2.666934 2.299106 7.346087 -8.287811 0.9723175 22.02052 7.717301 4.193557 -23.46461 8.102349 5.704336 -16.79774 10.92769 88.9832 36.27962 -23.75499 -0 0 12.33013 -10.06652 11.1328 5.69435 5.296812 -20.49828 -3.22992 -93.99748 37.03832 21.77876 0 0 -24.83953 -7.298965 15.65823 24.52735
1.36907 98.45281 29.85679 -2.552567 4.969263 2.718194 8.003029 -34.34657 3.316746 -0 14.18399 -0 -6.319238 -2.096088 -1.417061 -4.321033 16.26285 -15.65377 -0 19.85995 -0 -7.173575 -20.35786 10.82741 -1.306908 -0.6477662 2.568544 2.499071 7.367421 -8.35516 0.9015541 22.04272 7.664157 4.047748 -23.49848 8.01265 5.662049 -16.64723 11.01802 88.89806 36.27504 -23.59517 -0 0 11.91893 -10.68438 11.5472 6.123039 5.098227 -20.4215 -3.293031 -93.42959 36.40058 21.22141 0 0 -24.61439 -7.066109 15.42233 24.12163
1.521756 98.5718 35.71229 -2.939316 4.134848 3.101786 8.578336 -30.90621 3.293669 -0 15.54762 -0 -7.21662 -2.448043 -1.479812 -3.854493 15.21351 -14.57551 -0 27.83575 -0 -8.779334 -16.53129 9.297619 -1.377181 -0.5494908 2.607179 2.58731 7.420636 -8.330808 0.8394725 22.08682 7.637487 3.950892 -23.4564 7.927487 5.604877 -16.58931 11.10097 88.68375 36.37901 -23.21356 -0 0 11.68012 -11.472 11.97412 6.580542 4.929206 -20.35629 -3.303716 -93.03984 35.76437 20.92023 0 0 -24.27015 -6.76971 15.21629 23.68597
1.703661 99.15871 41.71439 -3.189327 2.93913 3.232236 8.99848 -26.41689 3.548824 -0 17.02477 -0 -8.16489 -3.555343 -1.862741 -3.356215 12.5331 -13.43791 -0 37.17353 -0 -9.833952 -12.29609 8.415577 -1.447946 -0.4713514 2.799592 2.551827 7.51109 -8.203762 0.7869822 22.15273 7.639397 3.904312 -23.32613 7.847692 5.52716 -16.63677 11.17572 88.3247 36.60443 -22.57881 -0 0 11.6352 -12.47085 12.43916 7.080054 4.791235 -20.30296 -3.256172 -92.83303 35.11823 20.89851 0 0 -23.79614 -6.403224 15.03823 23.22229
1.920494 100.1485 47.65233 -3.122438 1.603985 3.046195 8.915051 -21.1314 3.751957 -0 17.56025 -0 -8.926429 -5.27963 -2.363007 -2.958272 8.062688 -12.1913 -0 46.86133 -0 -10.25088 -8.319219 8.159568 -1.514683 -0.4080683 3.149294 2.392054 7.643943 -7.971746 0.7446062 22.23526 7.669799 3.902896 -23.09862 7.774289 5.424973 -16.79188 11.24344 87.81364 36.94752 -21.67647 -0 0 11.78587 -13.72399 12.97909 7.642417 4.682123 -20.2604 -3.152006 -92.78434 34.43001 21.14269 0 0 -23.1956 -5.958486 14.87514 22.72513
2.169123 101.3845 53.39832 -2.605873 0.3372839 2.596248 8.127531 -15.34365 3.570879 -0 16.53436 -0 -9.257791 -7.310388 -2.610133 -2.734837 2.042963 -10.82534 -0 55.40955 -0 -10.04853 -5.258365 8.420033 -1.572905 -0.3522222 3.64557 2.118829 7.822358 -7.640537 0.7136165 22.3249 7.726172 3.935746 -22.77076 7.710268 5.298473 -17.04788 11.30723 87.14696 37.38006 -20.50752 -0 0 12.12089 -15.26317 13.62863 8.292128 4.595621 -20.22182 -3.000577 -92.84948 33.65833 21.61104 0 0 -22.48088 -5.432886 14.70579 22.18721
2.439543 102.6514 58.93048 -1.649008 -0.7416054 2.038288 6.763398 -9.401929 2.881959 -0 14.06156 -0 -9.017835 -9.184521 -2.277193 -2.620162 -4.86197 -9.365897 -0 61.02304 -0 -9.291519 -3.556616 9.127445 -1.62007 -0.2974923 4.263558 1.752893 8.043942 -7.222349 0.6971469 22.41039 7.803271 3.988099 -22.34972 7.662225 5.153959 -17.39229 11.37128 86.32152 37.84467 -19.08748 -0 0 12.62715 -17.08613 14.3998 9.047066 4.521699 -20.16989 -2.817737 -92.98421 32.77624 22.25235 0 0 -21.66618 -4.841395 14.50875 21.61198
2.719788 103.7098 64.29292 -0.4731223 -1.636773 1.552496 5.291434 -3.695733 1.908986 -0 10.93819 -0 -8.305474 -10.44953 -1.394585 -2.374715 -11.71415 -7.83459 -0 62.05738 -0 -8.077373 -3.246688 10.32201 -1.656915 -0.2411579 4.967244 1.321496 8.297258 -6.733256 0.6999433 22.48279 7.893514 4.044784 -21.85635 7.639779 5.003612 -17.8105 11.43926 85.33631 38.26255 -17.44573 -0 0 13.2974 -19.13679 15.26512 9.905793 4.447728 -20.07628 -2.622416 -93.16482 31.79435 23.02726 0 0 -20.76198 -4.224114 14.27233 21.02441
3.008661 104.3271 69.53119 0.5262892 -2.430691 1.240355 4.291317 1.415395 1.132397 -0 8.183827 -0 -7.457963 -11.00975 -0.4555893 -1.655426 -17.63323 -6.21854 -0 57.72279 -0 -6.577466 -3.876014 12.05427 -1.687206 -0.1838672 5.716832 0.8533328 8.561521 -6.189919 0.7261045 22.53924 7.988505 4.094462 -21.32389 7.651646 4.861902 -18.28838 11.51295 84.198 38.55744 -15.62264 -0 0 14.1284 -21.30654 16.15893 10.84087 4.360476 -19.90841 -2.431518 -93.39772 30.76591 23.92156 0 0 -19.7739 -3.639845 14.00057 20.47014
3.331957 104.3279 74.67866 0.9750974 -3.168865 1.063361 4.083983 5.750326 0.9431695 -0 6.450552 -0 -6.760553 -11.35658 -0.04265623 -0.2369283 -22.13569 -4.51889 -0 48.66968 -0 -5.093602 -4.696743 14.15585 -1.715647 -0.1268581 6.476962 0.3743426 8.812036 -5.608054 0.7762093 22.58312 8.080805 4.131844 -20.79024 7.70043 4.740516 -18.81215 11.59225 82.92756 38.68233 -13.66652 -0 0 15.10972 -23.46462 17.00232 11.8062 4.24871 -19.64177 -2.256058 -93.70702 29.76387 24.9382 0 0 -18.7083 -3.145609 13.70959 19.99915
3.741441 103.6616 79.81009 0.7621171 -3.778745 0.8737019 4.504452 9.407897 1.333171 -0 5.800702 -0 -6.158266 -12.23838 -0.2982282 1.721335 -25.21293 -2.871479 -0 36.96653 -0 -4.026562 -5.090598 16.17095 -1.744552 -0.06974083 7.216632 -0.09188336 9.029192 -5.007348 0.8463862 22.61868 8.164634 4.155639 -20.28788 7.780847 4.645465 -19.36253 11.67574 81.5731 38.62831 -11.64656 -0 0 16.20637 -25.49517 17.73712 12.75191 4.10772 -19.2736 -2.102335 -94.10184 28.84569 26.06185 0 0 -17.58921 -2.775584 13.41659 19.64388
4.294335 102.4412 85.08674 0.1264101 -4.134933 0.5263633 4.998308 12.65906 1.943913 -0 6.043828 -0 -5.365001 -13.92831 -0.8280662 3.610907 -27.10948 -1.61938 -0 25.40942 -0 -3.682231 -4.917581 17.62948 -1.77062 -0.01113599 7.898689 -0.5197206 9.205294 -4.422086 0.9297726 22.64383 8.236124 4.164123 -19.8382 7.883654 4.576882 -19.90402 11.75943 80.23163 38.41703 -9.686753 -0 0 17.34049 -27.3125 18.34833 13.63173 3.946372 -18.8344 -1.977039 -94.54128 28.03452 27.21133 0 0 -16.48448 -2.531064 13.13158 19.40524
